<svg xmlns="http://www.w3.org/2000/svg" viewBox="0 0 1280 720" role="img" aria-labelledby="title desc">
  <title id="title">Holland Code Career Test Career Pathways</title>
  <desc id="desc">A classroom placeholder image for comparing career pathways from Holland Code results.</desc>
  <rect width="1280" height="720" fill="#f8fafc"/>
  <rect x="64" y="56" width="1152" height="608" rx="18" fill="#ffffff" stroke="#c9d8d3" stroke-width="4"/>
  <rect x="64" y="56" width="1152" height="84" rx="18" fill="#d89b25"/>
  <text x="104" y="109" fill="#ffffff" font-family="Arial, Helvetica, sans-serif" font-size="30" font-weight="700">Holland Code Career Test</text>
  <text x="104" y="174" fill="#17202a" font-family="Arial, Helvetica, sans-serif" font-size="24" font-weight="700">Career pathway comparison</text>
  <rect x="142" y="240" width="290" height="292" rx="12" fill="#f5f8f5" stroke="#c9d8d3" stroke-width="3"/>
  <rect x="494" y="240" width="290" height="292" rx="12" fill="#f5f8f5" stroke="#c9d8d3" stroke-width="3"/>
  <rect x="846" y="240" width="290" height="292" rx="12" fill="#f5f8f5" stroke="#c9d8d3" stroke-width="3"/>
  <text x="188" y="298" fill="#17202a" font-family="Arial, Helvetica, sans-serif" font-size="23" font-weight="700">Pathway A</text>
  <text x="540" y="298" fill="#17202a" font-family="Arial, Helvetica, sans-serif" font-size="23" font-weight="700">Pathway B</text>
  <text x="892" y="298" fill="#17202a" font-family="Arial, Helvetica, sans-serif" font-size="23" font-weight="700">Pathway C</text>
  <rect x="188" y="342" width="178" height="24" rx="12" fill="#0f766e" opacity="0.72"/>
  <rect x="188" y="394" width="206" height="18" rx="9" fill="#8aa19a" opacity="0.5"/>
  <rect x="188" y="438" width="154" height="18" rx="9" fill="#8aa19a" opacity="0.38"/>
  <rect x="540" y="342" width="178" height="24" rx="12" fill="#2563a6" opacity="0.72"/>
  <rect x="540" y="394" width="206" height="18" rx="9" fill="#8aa19a" opacity="0.5"/>
  <rect x="540" y="438" width="154" height="18" rx="9" fill="#8aa19a" opacity="0.38"/>
  <rect x="892" y="342" width="178" height="24" rx="12" fill="#b4535a" opacity="0.72"/>
  <rect x="892" y="394" width="206" height="18" rx="9" fill="#8aa19a" opacity="0.5"/>
  <rect x="892" y="438" width="154" height="18" rx="9" fill="#8aa19a" opacity="0.38"/>
  <text x="104" y="620" fill="#17202a" font-family="Arial, Helvetica, sans-serif" font-size="26" font-weight="700">Placeholder 4</text>
  <text x="294" y="620" fill="#5f6b78" font-family="Arial, Helvetica, sans-serif" font-size="24">Add career pathway comparison</text>
</svg>
