<svg xmlns="http://www.w3.org/2000/svg" viewBox="0 0 1280 720" role="img" aria-labelledby="title desc">
  <title id="title">Holland Code Career Test Student Reflection</title>
  <desc id="desc">A classroom placeholder image for a Holland Code student reflection worksheet.</desc>
  <rect width="1280" height="720" fill="#f8fafc"/>
  <rect x="64" y="56" width="1152" height="608" rx="18" fill="#ffffff" stroke="#c9d8d3" stroke-width="4"/>
  <rect x="64" y="56" width="1152" height="84" rx="18" fill="#b4535a"/>
  <text x="104" y="109" fill="#ffffff" font-family="Arial, Helvetica, sans-serif" font-size="30" font-weight="700">Holland Code Career Test</text>
  <text x="104" y="174" fill="#17202a" font-family="Arial, Helvetica, sans-serif" font-size="24" font-weight="700">Student career reflection</text>
  <rect x="150" y="226" width="440" height="342" rx="12" fill="#f5f8f5" stroke="#c9d8d3" stroke-width="3"/>
  <rect x="198" y="278" width="268" height="28" rx="14" fill="#b4535a" opacity="0.76"/>
  <rect x="198" y="344" width="320" height="18" rx="9" fill="#8aa19a" opacity="0.65"/>
  <rect x="198" y="392" width="282" height="18" rx="9" fill="#8aa19a" opacity="0.48"/>
  <rect x="198" y="440" width="346" height="18" rx="9" fill="#8aa19a" opacity="0.48"/>
  <rect x="690" y="226" width="440" height="342" rx="12" fill="#f5f8f5" stroke="#c9d8d3" stroke-width="3"/>
  <text x="738" y="288" fill="#17202a" font-family="Arial, Helvetica, sans-serif" font-size="23" font-weight="700">Reflection prompts</text>
  <circle cx="746" cy="348" r="10" fill="#0f766e"/>
  <rect x="770" y="338" width="274" height="20" rx="10" fill="#8aa19a" opacity="0.58"/>
  <circle cx="746" cy="408" r="10" fill="#0f766e"/>
  <rect x="770" y="398" width="312" height="20" rx="10" fill="#8aa19a" opacity="0.42"/>
  <circle cx="746" cy="468" r="10" fill="#0f766e"/>
  <rect x="770" y="458" width="236" height="20" rx="10" fill="#8aa19a" opacity="0.42"/>
  <text x="104" y="620" fill="#17202a" font-family="Arial, Helvetica, sans-serif" font-size="26" font-weight="700">Placeholder 3</text>
  <text x="294" y="620" fill="#5f6b78" font-family="Arial, Helvetica, sans-serif" font-size="24">Add student reflection worksheet</text>
</svg>
