<svg xmlns="http://www.w3.org/2000/svg" viewBox="0 0 1280 720" role="img" aria-labelledby="title desc">
  <title id="title">PowerPoint Placeholder 2</title>
  <desc id="desc">A placeholder image for a student presentation.</desc>
  <rect width="1280" height="720" fill="#f8fafc"/>
  <rect x="64" y="56" width="1152" height="608" rx="18" fill="#ffffff" stroke="#c9d8d3" stroke-width="4"/>
  <rect x="64" y="56" width="1152" height="84" rx="18" fill="#b4535a"/>
  <text x="104" y="109" fill="#ffffff" font-family="Arial, Helvetica, sans-serif" font-size="30" font-weight="700">PowerPoint</text>
  <text x="104" y="174" fill="#17202a" font-family="Arial, Helvetica, sans-serif" font-size="24" font-weight="700">Student presentation</text>
  <rect x="124" y="234" width="304" height="216" rx="10" fill="#f5f8f5" stroke="#c9d8d3" stroke-width="3"/>
  <rect x="488" y="234" width="304" height="216" rx="10" fill="#f5f8f5" stroke="#c9d8d3" stroke-width="3"/>
  <rect x="852" y="234" width="304" height="216" rx="10" fill="#f5f8f5" stroke="#c9d8d3" stroke-width="3"/>
  <rect x="164" y="284" width="224" height="20" rx="10" fill="#b4535a" opacity="0.72"/>
  <rect x="528" y="284" width="224" height="20" rx="10" fill="#b4535a" opacity="0.72"/>
  <rect x="892" y="284" width="224" height="20" rx="10" fill="#b4535a" opacity="0.72"/>
  <rect x="164" y="344" width="188" height="16" rx="8" fill="#8aa19a" opacity="0.45"/>
  <rect x="528" y="344" width="188" height="16" rx="8" fill="#8aa19a" opacity="0.45"/>
  <rect x="892" y="344" width="188" height="16" rx="8" fill="#8aa19a" opacity="0.45"/>
  <text x="104" y="620" fill="#17202a" font-family="Arial, Helvetica, sans-serif" font-size="26" font-weight="700">Placeholder 2</text>
  <text x="294" y="620" fill="#5f6b78" font-family="Arial, Helvetica, sans-serif" font-size="24">Add student presentation</text>
</svg>
