<svg xmlns="http://www.w3.org/2000/svg" viewBox="0 0 1280 720" role="img" aria-labelledby="title desc">
  <title id="title">Mathematica Placeholder 4</title>
  <desc id="desc">A placeholder image for exported Mathematica work.</desc>
  <rect width="1280" height="720" fill="#f8fafc"/>
  <rect x="64" y="56" width="1152" height="608" rx="18" fill="#ffffff" stroke="#c9d8d3" stroke-width="4"/>
  <rect x="64" y="56" width="1152" height="84" rx="18" fill="#b4535a"/>
  <text x="104" y="109" fill="#ffffff" font-family="Arial, Helvetica, sans-serif" font-size="30" font-weight="700">Mathematica</text>
  <text x="104" y="174" fill="#17202a" font-family="Arial, Helvetica, sans-serif" font-size="24" font-weight="700">Exported work</text>
  <rect x="104" y="214" width="1072" height="354" rx="14" fill="#f5f8f5" stroke="#c9d8d3" stroke-width="3"/>
  <rect x="184" y="264" width="360" height="254" rx="10" fill="#ffffff" stroke="#d9e2dc" stroke-width="3"/>
  <rect x="624" y="264" width="360" height="254" rx="10" fill="#ffffff" stroke="#d9e2dc" stroke-width="3"/>
  <rect x="224" y="314" width="280" height="18" rx="9" fill="#b4535a" opacity="0.72"/>
  <rect x="224" y="364" width="232" height="16" rx="8" fill="#8aa19a" opacity="0.5"/>
  <rect x="224" y="406" width="248" height="16" rx="8" fill="#8aa19a" opacity="0.35"/>
  <path d="M666 458 L746 360 L816 414 L900 318 L946 458 Z" fill="#b4535a" opacity="0.28"/>
  <text x="104" y="620" fill="#17202a" font-family="Arial, Helvetica, sans-serif" font-size="26" font-weight="700">Placeholder 4</text>
  <text x="294" y="620" fill="#5f6b78" font-family="Arial, Helvetica, sans-serif" font-size="24">Add exported work</text>
</svg>
