<svg xmlns="http://www.w3.org/2000/svg" viewBox="0 0 1280 720" role="img" aria-labelledby="title desc">
  <title id="title">Mathematica Placeholder 2</title>
  <desc id="desc">A placeholder image for a Mathematica graphing example.</desc>
  <rect width="1280" height="720" fill="#f8fafc"/>
  <rect x="64" y="56" width="1152" height="608" rx="18" fill="#ffffff" stroke="#c9d8d3" stroke-width="4"/>
  <rect x="64" y="56" width="1152" height="84" rx="18" fill="#b4535a"/>
  <text x="104" y="109" fill="#ffffff" font-family="Arial, Helvetica, sans-serif" font-size="30" font-weight="700">Mathematica</text>
  <text x="104" y="174" fill="#17202a" font-family="Arial, Helvetica, sans-serif" font-size="24" font-weight="700">Graphing example</text>
  <rect x="104" y="214" width="1072" height="354" rx="14" fill="#f5f8f5" stroke="#c9d8d3" stroke-width="3"/>
  <g stroke="#d9e2dc" stroke-width="2">
    <line x1="184" y1="260" x2="184" y2="522"/>
    <line x1="320" y1="260" x2="320" y2="522"/>
    <line x1="456" y1="260" x2="456" y2="522"/>
    <line x1="592" y1="260" x2="592" y2="522"/>
    <line x1="728" y1="260" x2="728" y2="522"/>
    <line x1="864" y1="260" x2="864" y2="522"/>
    <line x1="1000" y1="260" x2="1000" y2="522"/>
    <line x1="154" y1="476" x2="1106" y2="476"/>
    <line x1="154" y1="416" x2="1106" y2="416"/>
    <line x1="154" y1="356" x2="1106" y2="356"/>
    <line x1="154" y1="296" x2="1106" y2="296"/>
  </g>
  <polyline points="164,486 280,430 396,450 512,340 628,374 744,300 860,338 976,282 1092,318" fill="none" stroke="#b4535a" stroke-width="8"/>
  <text x="104" y="620" fill="#17202a" font-family="Arial, Helvetica, sans-serif" font-size="26" font-weight="700">Placeholder 2</text>
  <text x="294" y="620" fill="#5f6b78" font-family="Arial, Helvetica, sans-serif" font-size="24">Add graphing example</text>
</svg>
